<svg width="1200" height="1200" viewBox="0 0 1200 1200" fill="none" xmlns="http://www.w3.org/2000/svg">
<path d="M892 88H308C186.498 88 88 186.498 88 308V892C88 1013.5 186.498 1112 308 1112H892C1013.5 1112 1112 1013.5 1112 892V308C1112 186.498 1013.5 88 892 88Z" fill="#F74E20"/>
<path d="M249 941.205V429.715L950.472 258V769.49L249 941.205Z" fill="white"/>
<path fill-rule="evenodd" clip-rule="evenodd" d="M848.174 601.429C848.174 680.122 738.58 743.915 603.39 743.915C468.199 743.915 358.605 680.122 358.605 601.429C358.605 522.736 468.199 458.942 603.39 458.942C738.58 458.942 848.174 522.736 848.174 601.429ZM640.092 729.774C684.473 716.206 703.234 648.893 681.996 579.427C660.758 509.961 607.564 464.648 563.183 478.216C518.802 491.785 500.041 559.098 521.279 628.563C542.516 698.029 595.711 743.343 640.092 729.774Z" fill="#F74E20"/>
</svg>
